# xmcd CD database file
#
# Track frame offsets:
#	150
#	24316
#	38670
#	60539
#	75766
#	105138
#	132175
#	149278
#	176359
#	195178
#	224012
#	251330
#	271221
#
# Disc length: 3874 seconds
#
# Revision: 0
# Processed by: cddbd v1.4PL0 Copyright (c) Steve Scherf et al.
# Submitted via: CDex 1.50Beta5
#
DISCID=9a0f200d
DTITLE=Boring Blues Band - Back In Sweet Home Gamlitz
DYEAR=2001
DGENRE=Blues
TTITLE0=Sweet Home Chicago
TTITLE1=Shake A Tailfeather
TTITLE2=Just A Little Bit
TTITLE3=Everybody Needs Somebody To Love
TTITLE4=What'd I Say
TTITLE5=How Blue Can You Get
TTITLE6=She Caught The Katy
TTITLE7=Compared To What
TTITLE8=300 Pounds Of Joy
TTITLE9=Don't Think Twice
TTITLE10=Hard Drivin' Man
TTITLE11=Johnny B. Goode
TTITLE12=That's Amore
EXTD=YEAR: 2001
EXTT0=
EXTT1=
EXTT2=
EXTT3=
EXTT4=
EXTT5=
EXTT6=
EXTT7=
EXTT8=
EXTT9=
EXTT10=
EXTT11=
EXTT12=
PLAYORDER=
